<svg id="Layer_1" data-name="Layer 1" xmlns="http://www.w3.org/2000/svg" viewBox="0 0 559.96 644.67"><defs><style>.cls-1{fill:#e9731e;}.cls-2{fill:#e9511e;}.cls-3,.cls-4,.cls-5{fill:#448721;}.cls-4{stroke:#448721;}.cls-4,.cls-5,.cls-6{stroke-miterlimit:10;}.cls-5,.cls-6{stroke:#fff;stroke-width:2px;}.cls-6{fill:none;}.cls-7{fill:#f9b23e;}.cls-8{fill:#e4dd1c;}</style></defs><path class="cls-1" d="M904.82,420.41c-4.84-151-128.79-272-281-272-181.92,6.26-274.91,137.73-279,272Z" transform="translate(-344.86 -66.09)"/><path class="cls-1" d="M345.27,447.94c7.92,131,100.75,256.67,278.55,262.81,149.11,0,271.1-116.08,280.55-262.81Z" transform="translate(-344.86 -66.09)"/><circle class="cls-2" cx="262.2" cy="166.87" r="14.58"/><path class="cls-3" d="M484.56,76.2c35.65-2,65.74,25.06,83.25,53.61,19.41,31.63,27,68.6,34.43,104.47,1.3,6.3,10.94,3.63,9.64-2.66C600.28,175.73,585.35,112,533.1,79.74c-14.52-8.95-31.36-14.52-48.54-13.54-6.4.36-6.44,10.36,0,10Z" transform="translate(-344.86 -66.09)"/><path class="cls-3" d="M568.3,123.44A61.54,61.54,0,0,0,593.18,118c5.88-2.59.8-11.21-5-8.63a49.63,49.63,0,0,1-19.84,4.12c-6.44,0-6.45,10,0,10Z" transform="translate(-344.86 -66.09)"/><ellipse class="cls-4" cx="655.23" cy="96.37" rx="77.77" ry="18.17" transform="translate(-349.26 89.4) rotate(-13.49)"/><line class="cls-5" x1="250.21" y1="46.05" x2="385.99" y2="12.14"/><line class="cls-6" x1="267.58" y1="41.72" x2="272.7" y2="22.61"/><line class="cls-6" x1="310.37" y1="29.1" x2="318.1" y2="9.97"/><line class="cls-6" x1="341.32" y1="23.3" x2="350.21" y2="5.41"/><line class="cls-6" x1="267.58" y1="41.72" x2="296.49" y2="47.55"/><line class="cls-6" x1="314.23" y1="32.16" x2="333.55" y2="37.74"/><line class="cls-6" x1="341.32" y1="23.3" x2="362.21" y2="32.16"/><circle class="cls-7" cx="419.53" cy="193.55" r="26.68"/><path class="cls-8" d="M475.41,384.45v-2.58l6.14-1.6a2.76,2.76,0,0,0,1.35-.85,2.29,2.29,0,0,0,.56-1.6v-49a2.4,2.4,0,0,0-.56-1.62,2.45,2.45,0,0,0-1.35-.82l-6.14-1.6v-2.54h23.74a36.57,36.57,0,0,1,11.4,1.69,17.69,17.69,0,0,1,8.22,5.36,14.36,14.36,0,0,1,3.09,9.58,20.7,20.7,0,0,1-2.71,10.77,18.27,18.27,0,0,1-7.4,7,22.6,22.6,0,0,1-10.6,2.45,13.92,13.92,0,0,1-4.94-1.07,27.21,27.21,0,0,1-4.71-2.31l.05-2a19.1,19.1,0,0,0,3.86.66c1.63.15,3.19.23,4.67.23a12.16,12.16,0,0,0,6.58-1.58,10.91,10.91,0,0,0,3.78-3.87,16,16,0,0,0,1.75-4.55,19.23,19.23,0,0,0,.47-3.6,19.56,19.56,0,0,0-1.31-7.2,11.14,11.14,0,0,0-4.6-5.41q-3.3-2.06-9.25-2.06H492v51.55a2.31,2.31,0,0,0,.58,1.65,2.62,2.62,0,0,0,1.38.8l6.71,1.6v2.58Z" transform="translate(-344.86 -66.09)"/><path class="cls-8" d="M527.63,384.45V382l5.16-1.38a2.77,2.77,0,0,0,1.38-.82,2.32,2.32,0,0,0,.53-1.58V348.36a3,3,0,0,0-.64-1.94,4.37,4.37,0,0,0-1.85-1.22l-4.62-1.78v-1.95l14.53-2.85v10h.18a50.22,50.22,0,0,1,4-5.26,17,17,0,0,1,4.47-3.71,10.61,10.61,0,0,1,5.35-1.38,15.25,15.25,0,0,1,4,.44,14.73,14.73,0,0,1,3.22,1.38v10.67h-3.51l-1.38-3.65a2.92,2.92,0,0,0-2-1.49,9.91,9.91,0,0,0-3-.51,9.79,9.79,0,0,0-4.15.87,13.14,13.14,0,0,0-3.49,2.35,27.64,27.64,0,0,0-3.07,3.41v26.44a2.21,2.21,0,0,0,1.91,2.4l6.18,1.38v2.49Z" transform="translate(-344.86 -66.09)"/><path class="cls-8" d="M588.48,385.6a21.43,21.43,0,0,1-11.29-2.89,19.4,19.4,0,0,1-7.44-8.17,27.54,27.54,0,0,1-2.65-12.49A27.25,27.25,0,0,1,569.72,350a20.47,20.47,0,0,1,19.2-11.73q7.33,0,12.07,3.33a20.26,20.26,0,0,1,7,8.69,28.92,28.92,0,0,1,2.31,11.58,27.06,27.06,0,0,1-2.63,12,20.76,20.76,0,0,1-7.51,8.57A21,21,0,0,1,588.48,385.6Zm.62-3.69a10,10,0,0,0,6.09-1.77,12.42,12.42,0,0,0,3.8-4.69,24,24,0,0,0,2-6.25,38.23,38.23,0,0,0,.58-6.44,37.25,37.25,0,0,0-1.31-9.85A18.8,18.8,0,0,0,596,345a10.08,10.08,0,0,0-7.74-3.11,9.78,9.78,0,0,0-6,1.8,12.66,12.66,0,0,0-3.8,4.67,22.58,22.58,0,0,0-2,6.18,36.91,36.91,0,0,0-.58,6.42,42.53,42.53,0,0,0,.62,7.07,25.83,25.83,0,0,0,2.14,6.8,13.9,13.9,0,0,0,4,5.11A10.18,10.18,0,0,0,589.1,381.91Z" transform="translate(-344.86 -66.09)"/><path class="cls-8" d="M634.48,385.33a15.8,15.8,0,0,1-9.51-2.84,18.12,18.12,0,0,1-6.07-7.78,28,28,0,0,1-2.11-11.15,31.08,31.08,0,0,1,2.53-12.71,21.91,21.91,0,0,1,7.29-9.16A19,19,0,0,1,638,338.27a14.3,14.3,0,0,1,6.58,1.35,16.74,16.74,0,0,1,4.31,3.09V325.82a2.77,2.77,0,0,0-.55-1.77,3.88,3.88,0,0,0-1.85-1.16L641.06,321v-1.95l15.86-2.4v59.11a2.57,2.57,0,0,0,.6,1.78,4.56,4.56,0,0,0,1.85,1.11l4.53,1.64v2L650,385.33h-.62v-7.64h-.22a17.82,17.82,0,0,1-5.4,5.22,15.72,15.72,0,0,1-5.29,2A26.75,26.75,0,0,1,634.48,385.33Zm4.44-5.64a16.15,16.15,0,0,0,3.36-.42A12.72,12.72,0,0,0,646,377.8a8.56,8.56,0,0,0,2.91-2.73V345.29a9,9,0,0,0-2.93-1.42,24.94,24.94,0,0,0-3.76-.87,21.46,21.46,0,0,0-3.08-.29,12.15,12.15,0,0,0-7.8,2.45,14.56,14.56,0,0,0-4.6,6.44,24.41,24.41,0,0,0-1.52,8.71,32.36,32.36,0,0,0,1.43,10,14.22,14.22,0,0,0,4.46,6.89A11.92,11.92,0,0,0,638.92,379.69Z" transform="translate(-344.86 -66.09)"/><path class="cls-8" d="M688.12,385.33a16.24,16.24,0,0,1-7.22-1.57,11.62,11.62,0,0,1-5.11-5,18.67,18.67,0,0,1-1.89-9V348.09a2.69,2.69,0,0,0-.58-1.8,4,4,0,0,0-1.82-1.13L667,343.42v-1.95l15-2.85v27.92a32.84,32.84,0,0,0,.64,7,7.4,7.4,0,0,0,2.73,4.51c1.4,1.06,3.48,1.58,6.27,1.58a15.28,15.28,0,0,0,6.76-1.35,11.5,11.5,0,0,0,4.13-3.18v-27a2.2,2.2,0,0,0-.58-1.67,5.14,5.14,0,0,0-1.82-1l-4.58-1.73v-2l15-3.07v37.16a2.71,2.71,0,0,0,.56,1.78,4.14,4.14,0,0,0,1.84,1.11l4.54,1.64v2l-13.91,3.06h-.63V377.6h-.22a20.08,20.08,0,0,1-6,5.8A16.72,16.72,0,0,1,688.12,385.33Z" transform="translate(-344.86 -66.09)"/><path class="cls-8" d="M758.75,374.09h.84V378a37.88,37.88,0,0,1-7.22,5.07,20.13,20.13,0,0,1-10,2.44,18.51,18.51,0,0,1-10.62-3,20,20,0,0,1-6.94-8.11,27.09,27.09,0,0,1-.68-20.84,24.74,24.74,0,0,1,4.93-7.89,22.65,22.65,0,0,1,7.58-5.36,23.87,23.87,0,0,1,9.73-1.93,21.59,21.59,0,0,1,5.82.66,20.16,20.16,0,0,1,3.8,1.47c1,.53,1.85,1,2.56,1.29l-1,7.82h-1.42l-4.4-2.91a24.87,24.87,0,0,0-4.67-2.42,15.37,15.37,0,0,0-5.64-1,8.21,8.21,0,0,0-3.51.85,8.9,8.9,0,0,0-2.94,2.08,15.32,15.32,0,0,0-1.84,2.89,20.73,20.73,0,0,0-1.62,4.69,29.06,29.06,0,0,0-.67,6.69q0,9,3.89,14.07t11.49,5.09a13.51,13.51,0,0,0,5.09-1,22,22,0,0,0,4.28-2.27A37.13,37.13,0,0,0,758.75,374.09Z" transform="translate(-344.86 -66.09)"/><path class="cls-8" d="M794.21,339.74l-.93,4.13H778.34v30.62a3.62,3.62,0,0,0,1.52,3,9.71,9.71,0,0,0,3.51,1.69,13.42,13.42,0,0,0,3.42.54,18.68,18.68,0,0,0,6.18-1.43h.89v2.85c-.57.35-1.46.86-2.67,1.51a28.67,28.67,0,0,1-4.2,1.78,15.85,15.85,0,0,1-5,.8,15.64,15.64,0,0,1-5.86-1.05,9.81,9.81,0,0,1-4.2-3,7.75,7.75,0,0,1-1.58-4.94V343.87h-7.24v-2.93c1.6-.36,3-.71,4.15-1.05a5.47,5.47,0,0,0,2.8-1.8,7.1,7.1,0,0,0,1.18-4.13l.35-5.87,6.8-1.38v13Z" transform="translate(-344.86 -66.09)"/><path class="cls-8" d="M408.17,526.33v-2.58l6.27-1.6a2.73,2.73,0,0,0,1.38-.84,2.41,2.41,0,0,0,.53-1.6v-49a2.35,2.35,0,0,0-.56-1.62,2.45,2.45,0,0,0-1.35-.82l-6.27-1.6v-2.53h24.89v2.53l-6.22,1.6a2.58,2.58,0,0,0-1.38.84,2.4,2.4,0,0,0-.58,1.6v49a2.29,2.29,0,0,0,.56,1.62,2.87,2.87,0,0,0,1.4.82l6.22,1.6v2.58Z" transform="translate(-344.86 -66.09)"/><path class="cls-8" d="M439.06,526.33v-2.49l5.07-1.38a2.77,2.77,0,0,0,1.38-.82,2.32,2.32,0,0,0,.53-1.58V490a2.53,2.53,0,0,0-.6-1.77,4.83,4.83,0,0,0-1.85-1.16l-4.53-1.73v-2l14.53-2.84v7.37h.23a21.42,21.42,0,0,1,4.84-4.93,14.32,14.32,0,0,1,4.85-2.22,21,21,0,0,1,4.93-.58,16.29,16.29,0,0,1,7.27,1.6,11.82,11.82,0,0,1,5.17,5.05,18.38,18.38,0,0,1,1.91,9v24.08a2.5,2.5,0,0,0,.58,1.74,3,3,0,0,0,1.34.84l4.48,1.38v2.49h-21v-2.49l4.76-1.38a3,3,0,0,0,1.33-.86,2.5,2.5,0,0,0,.53-1.72V499a29.92,29.92,0,0,0-.71-7,7.74,7.74,0,0,0-2.82-4.53q-2.11-1.6-6.33-1.6a18.25,18.25,0,0,0-5.8,1,10.71,10.71,0,0,0-5.09,3.6v29.6a2.21,2.21,0,0,0,.55,1.6,2.94,2.94,0,0,0,1.36.8l4.22,1.38v2.49Z" transform="translate(-344.86 -66.09)"/><path class="cls-8" d="M523.33,481.62l-.94,4.13H507.46v30.62a3.64,3.64,0,0,0,1.51,3,9.86,9.86,0,0,0,3.51,1.68,13.49,13.49,0,0,0,3.42.54,14.1,14.1,0,0,0,3.45-.51,14.43,14.43,0,0,0,2.73-.91H523V523c-.56.36-1.45.86-2.67,1.51a26.79,26.79,0,0,1-4.2,1.78,16.62,16.62,0,0,1-10.91-.25,9.81,9.81,0,0,1-4.2-3,7.72,7.72,0,0,1-1.57-4.93V485.75h-7.25v-2.93c1.6-.36,3-.71,4.16-1.05a5.47,5.47,0,0,0,2.8-1.8,7.08,7.08,0,0,0,1.17-4.13l.36-5.87,6.8-1.37v13Z" transform="translate(-344.86 -66.09)"/><path class="cls-8" d="M547.68,527.4a21.31,21.31,0,0,1-10.75-2.69,18.72,18.72,0,0,1-7.4-7.89,27.46,27.46,0,0,1-2.69-12.76,27.12,27.12,0,0,1,2.6-11.91,21.85,21.85,0,0,1,7.35-8.71,19.23,19.23,0,0,1,11.2-3.29,17.72,17.72,0,0,1,9.67,2.53,17,17,0,0,1,6.07,6.58,18.48,18.48,0,0,1,2.08,8.58c0,.36,0,.77,0,1.24s0,.94-.09,1.4a7.9,7.9,0,0,1-.2,1.23H534.57l.22-3.56h22.49a25.87,25.87,0,0,0-.95-7.27,11.06,11.06,0,0,0-3.09-5.15,8.24,8.24,0,0,0-5.74-1.93,9.88,9.88,0,0,0-5.93,1.71,12.27,12.27,0,0,0-3.78,4.46,21.89,21.89,0,0,0-2,5.91,34.1,34.1,0,0,0-.57,6.05,32,32,0,0,0,1.4,9.64,15,15,0,0,0,4.77,7.29q3.39,2.8,9.25,2.8a18.89,18.89,0,0,0,6.11-.93,22.23,22.23,0,0,0,4.8-2.25,39.4,39.4,0,0,0,3.36-2.33h.8v3.91a32.89,32.89,0,0,1-7.69,5A23.16,23.16,0,0,1,547.68,527.4Z" transform="translate(-344.86 -66.09)"/><path class="cls-8" d="M591.68,510.51a26.52,26.52,0,0,1-3.87-.27,22.29,22.29,0,0,1-3.15-.67A4.34,4.34,0,0,0,581.9,511a4.24,4.24,0,0,0-1.24,3.06,4.59,4.59,0,0,0,1.18,3.27,4.37,4.37,0,0,0,2.77,1.44h15a19.16,19.16,0,0,1,9.06,1.8,11.07,11.07,0,0,1,4.74,4.49,11.72,11.72,0,0,1,1.4,5.45,13.62,13.62,0,0,1-3.18,8.89,21.25,21.25,0,0,1-8.54,6.06,31.17,31.17,0,0,1-12,2.2,35.77,35.77,0,0,1-10.09-1.31,15.72,15.72,0,0,1-7-3.87,8.57,8.57,0,0,1-2.51-6.24,8.88,8.88,0,0,1,2.93-7.13,17.47,17.47,0,0,1,6.72-3.58v-.22a11.87,11.87,0,0,1-3.18-1.43,9.48,9.48,0,0,1-2.85-2.73A7.1,7.1,0,0,1,574,517a7.3,7.3,0,0,1,1.26-4.4,9.67,9.67,0,0,1,3.18-2.78,15.53,15.53,0,0,1,3.78-1.49v-.17a18.64,18.64,0,0,1-3.71-2.8,13.13,13.13,0,0,1-2.85-4.16,14.61,14.61,0,0,1-1.09-5.89,13.75,13.75,0,0,1,2.23-7.6,15.8,15.8,0,0,1,6.24-5.53,20,20,0,0,1,9.27-2.07,29,29,0,0,1,4.57.36,43.05,43.05,0,0,1,4.36.89h15.56l-.76,5.42L604,484.68v.18a16.62,16.62,0,0,1,3.71,5,13.05,13.05,0,0,1,1.27,5.67,14.13,14.13,0,0,1-4.51,10.71Q599.95,510.5,591.68,510.51Zm1.42,33.15a24.29,24.29,0,0,0,7.07-1,12.9,12.9,0,0,0,5.64-3.36,8.35,8.35,0,0,0,2.23-6,7.83,7.83,0,0,0-2.09-5.09q-2.1-2.48-6.85-2.47H584.57a7.12,7.12,0,0,0-3.36,2.45A8.79,8.79,0,0,0,579.5,534a7.77,7.77,0,0,0,1.4,4.74,9.9,9.9,0,0,0,3.54,3,16.62,16.62,0,0,0,4.46,1.54A23.26,23.26,0,0,0,593.1,543.66ZM592,507.4a7.32,7.32,0,0,0,4.84-1.6,9.74,9.74,0,0,0,2.87-4.38,19.78,19.78,0,0,0,1-6.38q0-5.37-2.4-8.51a8.25,8.25,0,0,0-11.13-1.69,9.16,9.16,0,0,0-3,4.07,16.67,16.67,0,0,0-1,6.22,15,15,0,0,0,2.4,8.91A7.57,7.57,0,0,0,592,507.4Z" transform="translate(-344.86 -66.09)"/><path class="cls-8" d="M620.92,526.33v-2.49l5.16-1.38a2.77,2.77,0,0,0,1.38-.82,2.32,2.32,0,0,0,.53-1.58V490.24a3,3,0,0,0-.64-1.93,4.3,4.3,0,0,0-1.85-1.23l-4.62-1.77v-2l14.53-2.84v10h.18a50.38,50.38,0,0,1,4-5.27,17.19,17.19,0,0,1,4.47-3.71,10.61,10.61,0,0,1,5.35-1.38,14.79,14.79,0,0,1,4,.45,14.21,14.21,0,0,1,3.22,1.37v10.67H653.1L651.72,489a2.89,2.89,0,0,0-2-1.49,9.91,9.91,0,0,0-3-.51,9.76,9.76,0,0,0-4.15.86,13.18,13.18,0,0,0-3.49,2.36,26.82,26.82,0,0,0-3.07,3.4v26.44a2.19,2.19,0,0,0,1.91,2.4l6.18,1.38v2.49Z" transform="translate(-344.86 -66.09)"/><path class="cls-8" d="M672.43,527.22a12.2,12.2,0,0,1-6.48-1.69A11.53,11.53,0,0,1,661.7,521a12.64,12.64,0,0,1-1.49-6,12,12,0,0,1,2.11-7.22,15.83,15.83,0,0,1,5.43-4.69,26.35,26.35,0,0,1,7-2.58,31.72,31.72,0,0,1,6.71-.8c.39,0,1,0,1.85.11l2.53.22,1.84.16,0-7.42q0-4.62-1.87-6.27a8.24,8.24,0,0,0-5.51-1.64,13.51,13.51,0,0,0-4.38.73,21.39,21.39,0,0,0-4.06,1.87c-1.28.75-2.46,1.51-3.54,2.29s-2,1.45-2.82,2h-1.29l-1-7.69q2.1-1,4.47-1.89a34,34,0,0,1,5.25-1.51,30.65,30.65,0,0,1,6.28-.6,23.56,23.56,0,0,1,7.74,1.31,13.58,13.58,0,0,1,6.29,4.49q2.5,3.18,2.42,8.78l-.18,23.82a2.86,2.86,0,0,0,1.07,2.31,4.18,4.18,0,0,0,2.8.89,8.6,8.6,0,0,0,1.93-.35c.87-.24,1.62-.48,2.24-.72h.54v2.76a24.31,24.31,0,0,1-2.33,1.53,21.7,21.7,0,0,1-3.25,1.58,8.76,8.76,0,0,1-3.22.67,8.09,8.09,0,0,1-5.56-1.69c-1.24-1.13-1.86-3.08-1.86-5.87h-.23a16,16,0,0,1-5,4.87,17.07,17.07,0,0,1-5.4,2.15A24.61,24.61,0,0,1,672.43,527.22Zm4.32-5.47a17.23,17.23,0,0,0,5.84-1.15,10,10,0,0,0,4.95-3.69l.09-13.69a46.83,46.83,0,0,0-9.93.93,13.57,13.57,0,0,0-6.58,3.16,8,8,0,0,0-2.33,6,8.79,8.79,0,0,0,1.24,5,7,7,0,0,0,3.07,2.6A9.22,9.22,0,0,0,676.75,521.75Z" transform="translate(-344.86 -66.09)"/><path class="cls-8" d="M736.17,481.62l-.94,4.13H720.3v30.62a3.64,3.64,0,0,0,1.51,3,9.86,9.86,0,0,0,3.51,1.68,13.42,13.42,0,0,0,3.42.54,14.1,14.1,0,0,0,3.45-.51,14.43,14.43,0,0,0,2.73-.91h.89V523c-.56.36-1.45.86-2.67,1.51a26.79,26.79,0,0,1-4.2,1.78,16.62,16.62,0,0,1-10.91-.25,9.81,9.81,0,0,1-4.2-3,7.73,7.73,0,0,1-1.58-4.93V485.75H705v-2.93c1.6-.36,3-.71,4.16-1.05A5.47,5.47,0,0,0,712,480a7.15,7.15,0,0,0,1.17-4.13l.36-5.87,6.8-1.37v13Z" transform="translate(-344.86 -66.09)"/><path class="cls-8" d="M739.1,526.33v-2.49l5.69-1.38a2.87,2.87,0,0,0,1.4-.82,2.24,2.24,0,0,0,.55-1.58V490.11a2.59,2.59,0,0,0-.6-1.76,4.23,4.23,0,0,0-1.84-1.13l-5-1.74v-2l15.46-2.8v39.38a2.33,2.33,0,0,0,.54,1.62,2.45,2.45,0,0,0,1.37.78l5.43,1.38v2.49Zm11-55.51a6,6,0,0,1-2.87-.71,5.52,5.52,0,0,1-2.08-2,5.32,5.32,0,0,1-.78-2.89,5.18,5.18,0,0,1,1.69-4,5.77,5.77,0,0,1,4-1.55,6.15,6.15,0,0,1,4.24,1.51,5,5,0,0,1,1.72,3.91,5.43,5.43,0,0,1-.8,2.95,5.71,5.71,0,0,1-2.14,2A6.14,6.14,0,0,1,750.12,470.82Z" transform="translate(-344.86 -66.09)"/><path class="cls-8" d="M788.39,527.48a21.52,21.52,0,0,1-11.29-2.88,19.57,19.57,0,0,1-7.45-8.18A27.67,27.67,0,0,1,767,503.93a27.11,27.11,0,0,1,2.62-12.05,20.44,20.44,0,0,1,19.2-11.73q7.33,0,12.07,3.33a20.3,20.3,0,0,1,7,8.69,28.92,28.92,0,0,1,2.31,11.58,27,27,0,0,1-2.62,12,20.33,20.33,0,0,1-19.24,11.75Zm.62-3.68A10,10,0,0,0,795.1,522a12.51,12.51,0,0,0,3.8-4.69,23.89,23.89,0,0,0,2-6.25,38.19,38.19,0,0,0,.57-6.44,36.72,36.72,0,0,0-1.31-9.84,18.46,18.46,0,0,0-4.2-7.89,10,10,0,0,0-7.73-3.11,9.81,9.81,0,0,0-6.05,1.8,12.73,12.73,0,0,0-3.8,4.66,22.91,22.91,0,0,0-2,6.18,36.91,36.91,0,0,0-.58,6.42,42.53,42.53,0,0,0,.62,7.07,25.82,25.82,0,0,0,2.13,6.8,14,14,0,0,0,4.05,5.11A10.19,10.19,0,0,0,789,523.8Z" transform="translate(-344.86 -66.09)"/><path class="cls-8" d="M816.21,526.33v-2.49l5.06-1.38a2.68,2.68,0,0,0,1.38-.82,2.28,2.28,0,0,0,.54-1.58V490a2.53,2.53,0,0,0-.6-1.77,4.83,4.83,0,0,0-1.85-1.16l-4.53-1.73v-2l14.53-2.84v7.37H831a21.44,21.44,0,0,1,4.85-4.93,14.28,14.28,0,0,1,4.84-2.22,21.17,21.17,0,0,1,4.94-.58,16.25,16.25,0,0,1,7.26,1.6A11.79,11.79,0,0,1,858,486.8a18.49,18.49,0,0,1,1.91,9v24.08a2.46,2.46,0,0,0,.58,1.74,3,3,0,0,0,1.33.84l4.49,1.38v2.49h-21v-2.49l4.75-1.38a3,3,0,0,0,1.34-.86,2.55,2.55,0,0,0,.53-1.72V499a30.46,30.46,0,0,0-.71-7,7.79,7.79,0,0,0-2.82-4.53q-2.11-1.6-6.34-1.6a18.29,18.29,0,0,0-5.8,1,10.73,10.73,0,0,0-5.08,3.6v29.6a2.21,2.21,0,0,0,.55,1.6,2.89,2.89,0,0,0,1.36.8l4.22,1.38v2.49Z" transform="translate(-344.86 -66.09)"/></svg>