<svg id="Layer_1" data-name="Layer 1" xmlns="http://www.w3.org/2000/svg" viewBox="0 0 559.96 644.67"><defs><style>.cls-1{fill:#e9731e;}.cls-2{fill:#e9511e;}.cls-3,.cls-4,.cls-5{fill:#448721;}.cls-4{stroke:#448721;}.cls-4,.cls-5,.cls-6{stroke-miterlimit:10;}.cls-5,.cls-6{stroke:#fff;stroke-width:2px;}.cls-6{fill:none;}.cls-7{fill:#f9b23e;}</style></defs><path class="cls-1" d="M904.82,420.41c-4.84-151-128.79-272-281-272-181.92,6.26-274.91,137.73-279,272Z" transform="translate(-344.86 -66.09)"/><path class="cls-1" d="M345.27,447.94c7.92,131,100.75,256.67,278.55,262.81,149.11,0,271.1-116.08,280.55-262.81Z" transform="translate(-344.86 -66.09)"/><circle class="cls-2" cx="262.2" cy="166.87" r="14.58"/><path class="cls-3" d="M484.56,76.2c35.65-2,65.74,25.06,83.25,53.61,19.41,31.63,27,68.6,34.43,104.47,1.3,6.3,10.94,3.63,9.64-2.66C600.28,175.73,585.35,112,533.1,79.74c-14.52-8.95-31.36-14.52-48.54-13.54-6.4.36-6.44,10.36,0,10Z" transform="translate(-344.86 -66.09)"/><path class="cls-3" d="M568.3,123.44A61.54,61.54,0,0,0,593.18,118c5.88-2.59.8-11.21-5-8.63a49.63,49.63,0,0,1-19.84,4.12c-6.44,0-6.45,10,0,10Z" transform="translate(-344.86 -66.09)"/><ellipse class="cls-4" cx="655.23" cy="96.37" rx="77.77" ry="18.17" transform="translate(-349.26 89.4) rotate(-13.49)"/><line class="cls-5" x1="250.21" y1="46.05" x2="385.99" y2="12.14"/><line class="cls-6" x1="267.58" y1="41.72" x2="272.7" y2="22.61"/><line class="cls-6" x1="310.37" y1="29.1" x2="318.1" y2="9.97"/><line class="cls-6" x1="341.32" y1="23.3" x2="350.21" y2="5.41"/><line class="cls-6" x1="267.58" y1="41.72" x2="296.49" y2="47.55"/><line class="cls-6" x1="314.23" y1="32.16" x2="333.55" y2="37.74"/><line class="cls-6" x1="341.32" y1="23.3" x2="362.21" y2="32.16"/><circle class="cls-7" cx="419.53" cy="193.55" r="26.68"/></svg>